<svg xmlns="http://www.w3.org/2000/svg" width="15" height="13" viewBox="0 0 15 13">
    <path fill="#788C9D" fill-rule="evenodd" d="M5.79 3.005l2.764.626 3.891-2.552.307.532.811-1.6-1.704.05.307.532-3.71 2.433-2.764-.625L.543 5.776l.28.486L5.79 3.005zm-.887 5.36v.79c0 .41.949.87 2.22.87 1.271 0 2.22-.46 2.22-.87v-.79c-.451.36-1.258.592-2.22.592-.962 0-1.768-.231-2.22-.593zm0 2.973v.79c0 .412.949.872 2.22.872 1.271 0 2.22-.46 2.22-.871v-.79c-.451.36-1.258.592-2.22.592-.962 0-1.768-.231-2.22-.593zm4.902-6.643c0 .41.949.871 2.22.871 1.271 0 2.22-.46 2.22-.871 0-.41-.949-.87-2.22-.87-1.27 0-2.22.46-2.22.87zM0 11.339v.791c0 .41.95.87 2.22.87 1.272 0 2.221-.46 2.221-.87v-.791c-.452.36-1.259.593-2.22.593-.962 0-1.768-.232-2.221-.593zM2.22 9.77c-1.27 0-2.22.46-2.22.87 0 .412.95.872 2.22.872 1.272 0 2.221-.46 2.221-.871 0-.41-.95-.87-2.22-.87zm2.683.08v.79c0 .412.949.872 2.22.872 1.271 0 2.221-.46 2.221-.871V9.85c-.452.361-1.26.593-2.221.593-.962 0-1.768-.231-2.22-.593zm4.902-2.973v.79c0 .412.949.872 2.22.872 1.271 0 2.221-.46 2.221-.871v-.791c-.452.361-1.26.593-2.221.593-.96 0-1.767-.232-2.22-.593zm0 1.486v.79c0 .412.949.872 2.22.872 1.271 0 2.221-.46 2.221-.871v-.79c-.452.36-1.26.592-2.221.592-.96 0-1.767-.23-2.22-.593zM7.123 6.797c-1.271 0-2.22.46-2.22.871s.949.871 2.22.871c1.271 0 2.221-.459 2.221-.871 0-.41-.95-.87-2.221-.87zm2.682-1.406v.791c0 .41.949.87 2.22.87 1.271 0 2.221-.459 2.221-.87v-.791c-.452.361-1.26.593-2.221.593-.96 0-1.767-.232-2.22-.593zm0 4.46v.791c0 .41.949.871 2.22.871 1.271 0 2.221-.46 2.221-.87V9.85c-.452.36-1.26.593-2.221.593-.96 0-1.767-.232-2.22-.593zm0 1.487v.791c0 .41.949.871 2.22.871 1.271 0 2.221-.46 2.221-.87v-.792c-.452.362-1.26.593-2.221.593-.96 0-1.767-.231-2.22-.593z"/>
</svg>
