<svg xmlns="http://www.w3.org/2000/svg" width="15" height="15" viewBox="0 0 15 15">
    <path fill="#788C9D" fill-rule="evenodd" d="M12.084 10.285l2.428.148L15 8.272l-2.25-.96a5.505 5.505 0 0 0-.368-1.697l1.628-1.851-1.346-1.742-2.131 1.203a5.193 5.193 0 0 0-1.545-.766L8.584 0H6.418l-.404 2.46a5.149 5.149 0 0 0-1.53.755L2.358 2.004 1.006 3.74l1.621 1.856c-.21.53-.338 1.099-.374 1.697L0 8.244l.48 2.164 2.427-.139c.28.51.64.967 1.06 1.358l-.682 2.4 1.95.965 1.41-2.037c.28.05.564.078.856.078.286 0 .564-.029.838-.074L9.742 15l1.952-.96-.672-2.4a5.341 5.341 0 0 0 1.062-1.355zm-7.216-2.65c0-1.49 1.179-2.699 2.633-2.699s2.633 1.21 2.633 2.699c0 1.49-1.18 2.7-2.633 2.7-1.454 0-2.633-1.21-2.633-2.7z"/>
</svg>
