<svg xmlns="http://www.w3.org/2000/svg" width="15" height="16" viewBox="0 0 15 16">
    <path fill="#788C9D" fill-rule="evenodd" d="M14.186 9.45h-1.702V7.725a.571.571 0 0 0-.568-.575H7.944V6h1.702a.571.571 0 0 0 .568-.575v-4.6A.571.571 0 0 0 9.646.25h-4.54a.571.571 0 0 0-.567.575v4.6c0 .318.254.575.568.575h1.702v1.15H2.837a.571.571 0 0 0-.567.575V9.45H.567a.571.571 0 0 0-.567.575v4.6c0 .318.254.575.567.575h4.54a.571.571 0 0 0 .567-.575v-4.6a.571.571 0 0 0-.567-.575H3.405V8.3h7.944v1.15H9.646a.571.571 0 0 0-.567.575v4.6c0 .318.254.575.567.575h4.54a.571.571 0 0 0 .567-.575v-4.6a.571.571 0 0 0-.567-.575zM5.674 1.4H9.08v3.45H5.674V1.4zM4.54 14.05H1.135V10.6h3.404v3.45zm9.08 0h-3.405V10.6h3.404v3.45z"/>
</svg>
