<svg xmlns="http://www.w3.org/2000/svg" width="10" height="17" viewBox="0 0 10 17">
    <path fill="#788C9D" fill-rule="evenodd" d="M2.04.61C.918.61 0 1.528 0 2.65v11.56c0 1.122.918 2.04 2.04 2.04h5.44c1.122 0 2.04-.918 2.04-2.04V2.65c0-1.122-.918-2.04-2.04-2.04H2.04zm0 1.02h5.44c.455 0 .83.278.967.68H1.073c.136-.402.512-.68.967-.68zm-1.02 1.7H8.5v9.18H1.02V3.33zm0 10.2H8.5v.68c0 .574-.446 1.02-1.02 1.02H2.04c-.574 0-1.02-.446-1.02-1.02v-.68zm2.55.34a.51.51 0 0 0 0 1.02h2.38a.51.51 0 0 0 0-1.02H3.57z"/>
</svg>
