<svg xmlns="http://www.w3.org/2000/svg" width="17" height="11" viewBox="0 0 17 11">
    <g fill="#788C9D" fill-rule="evenodd">
        <path d="M2.194 2.7c0 1.45 1.202 2.63 2.678 2.63 1.478 0 2.68-1.18 2.68-2.63S6.348.07 4.871.07 2.194 1.25 2.194 2.7zM8.662 7.588a3.422 3.422 0 0 0-2.322-.905H3.405C1.527 6.682 0 8.181 0 10.024h6.758a4.431 4.431 0 0 1 1.904-2.437zM9.449 3.605c0 1.45 1.202 2.63 2.678 2.63 1.478 0 2.68-1.18 2.68-2.63s-1.203-2.63-2.68-2.63-2.678 1.18-2.678 2.63z"/>
        <path d="M13.595 7.587H10.66c-1.878 0-3.405 1.5-3.405 3.343H17c0-1.844-1.527-3.343-3.405-3.343z"/>
    </g>
</svg>
