<svg xmlns="http://www.w3.org/2000/svg" width="15" height="15" viewBox="0 0 15 15">
    <g fill="#788C9D" fill-rule="evenodd">
        <path d="M.37 12.699h14.278c.133 0 .241.108.241.241v1.776a.242.242 0 0 1-.241.242H.37a.241.241 0 0 1-.242-.242V12.94c0-.133.108-.241.242-.241zM.624 3.135a.225.225 0 0 0 .098-.021L7.51.071l6.788 3.043a.236.236 0 0 0 .098.021h.232c.133 0 .242.108.242.242v.687c0 .132-.108.24-.242.24H.392a.24.24 0 0 1-.24-.24v-.688c0-.134.108-.242.24-.242l.232.001M1.154 4.944H2.3a.24.24 0 0 1 .24.242v6.697a.24.24 0 0 1-.24.24H1.154a.241.241 0 0 1-.24-.24V5.185a.24.24 0 0 1 .24-.24zM5.008 4.944h1.148c.132 0 .24.108.24.242v6.697a.241.241 0 0 1-.24.24H5.008a.241.241 0 0 1-.24-.24V5.185a.24.24 0 0 1 .24-.24zM8.862 4.944h1.148c.132 0 .24.108.24.242v6.697a.241.241 0 0 1-.24.24H8.862a.241.241 0 0 1-.24-.24V5.185a.24.24 0 0 1 .24-.24zM12.717 4.944h1.148c.132 0 .24.108.24.242v6.697a.241.241 0 0 1-.24.24h-1.148a.241.241 0 0 1-.242-.24V5.185c0-.133.109-.24.242-.24z"/>
    </g>
</svg>
