<svg xmlns="http://www.w3.org/2000/svg" width="17" height="17" viewBox="0 0 17 17">
    <g fill="#525876" fill-rule="evenodd">
        <path d="M16.626 7.977a.502.502 0 0 1 .031.836l-3.225 2.273a.513.513 0 0 1-.506.048.501.501 0 0 1-.084-.868l1.928-1.358H7.537a.506.506 0 0 1-.508-.503c0-.278.227-.503.508-.503h7.203l-1.903-1.318a.5.5 0 0 1-.124-.702.513.513 0 0 1 .709-.123l3.204 2.218z"/>
        <path d="M1.159 15.899V1.1h10.046l.007 3.497c.001.299.22.54.489.54.268 0 .486-.244.485-.543L12.176.02H.186V16.98h12v-4.678c0-.3-.218-.542-.487-.542s-.487.242-.487.542v3.596H1.16z"/>
    </g>
</svg>
