<svg xmlns="http://www.w3.org/2000/svg" width="18" height="20" viewBox="0 0 18 20">
    <path fill="#333A41" fill-rule="evenodd" d="M8.64 0c-2.993 0-5.4 2.516-5.4 5.506 0 4.757-1.114 5.554-3.085 7.848a.636.636 0 0 0-.155.41v1.695c0 .332.309.635.648.635h4.759c.112 1.65 1.522 2.965 3.233 2.965s3.121-1.315 3.233-2.965h4.759c.34 0 .648-.303.648-.635v-1.694a.636.636 0 0 0-.155-.41c-1.971-2.295-3.085-3.092-3.085-7.85C14.04 2.517 11.633 0 8.64 0zm0 1.27c2.248 0 4.104 1.913 4.104 4.236 0 4.834 1.396 6.349 3.24 8.484v.833H1.296v-.833c1.844-2.135 3.24-3.65 3.24-8.484 0-2.323 1.856-4.235 4.104-4.235zM6.736 16.095h3.807a1.892 1.892 0 0 1-1.903 1.694 1.892 1.892 0 0 1-1.904-1.694z"/>
</svg>
