<svg xmlns="http://www.w3.org/2000/svg" width="13" height="12" viewBox="0 0 13 12">
    <path fill="#788C9D" fill-rule="evenodd" d="M12.038 4.98a1.145 1.145 0 0 0-.208-.22l-1.066-3.602a.807.807 0 0 0-.767-.572H2.73a.796.796 0 0 0-.767.572L.91 4.76c-.065.052-.13.13-.208.221C.234 5.552 0 6.28 0 7.02v2.536c0 .22.182.403.403.403h1.092v1.456c0 .325.26.585.585.585h.455c.325 0 .585-.26.585-.585V9.959h6.526v1.456c0 .325.26.585.585.585h.455c.325 0 .585-.26.585-.585V9.959h.923c.312 0 .572-.26.572-.572V7.008c-.026-.728-.26-1.456-.728-2.028zM2.756 1.405h7.24l.963 3.263H1.794l.962-3.263zM2.3 8.23a.905.905 0 0 1-.91-.91c0-.507.403-.91.91-.91s.91.403.91.91-.403.91-.91.91zm8.138 0a.905.905 0 0 1-.91-.91c0-.507.403-.91.91-.91.494 0 .91.403.91.91a.921.921 0 0 1-.91.91z"/>
</svg>
