<svg xmlns="http://www.w3.org/2000/svg" width="15" height="11" viewBox="0 0 15 11">
    <g fill="#788C9D" fill-rule="evenodd">
        <path d="M14.89 3.517L12.568.157H2.432L.11 3.517c0 .75.675 1.383 1.478 1.383.802 0 1.479-.593 1.479-1.383 0 .75.675 1.383 1.478 1.383.802 0 1.478-.593 1.478-1.383 0 .75.676 1.383 1.479 1.383.802 0 1.478-.593 1.478-1.383 0 .75.675 1.383 1.478 1.383.802 0 1.479-.593 1.479-1.383 0 .75.675 1.383 1.478 1.383.8 0 1.475-.593 1.475-1.382zM13.412 6.48c-.464 0-.886-.08-1.266-.237v3.003H2.854V6.243c-.38.158-.802.237-1.266.237-.127 0-.296 0-.422-.04v4.386h12.668V6.44c-.126.04-.295.04-.422.04z"/>
    </g>
</svg>
