<?xml version="1.0" standalone="no"?>
<!DOCTYPE svg PUBLIC "-//W3C//DTD SVG 20010904//EN"
 "http://www.w3.org/TR/2001/REC-SVG-20010904/DTD/svg10.dtd">
<svg version="1.0" xmlns="http://www.w3.org/2000/svg"
 width="2679.000000pt" height="2679.000000pt" viewBox="0 0 2679.000000 2679.000000"
 preserveAspectRatio="xMidYMid meet">
<metadata>
Created by potrace 1.11, written by Peter Selinger 2001-2013
</metadata>
<g transform="translate(0.000000,2679.000000) scale(0.100000,-0.100000)"
fill="#000000" stroke="none">
<path d="M19337 24343 c-1 0 -95 -4 -208 -7 -113 -4 -230 -8 -260 -11 -30 -2
-110 -7 -179 -10 -69 -4 -143 -8 -165 -10 -22 -2 -85 -6 -140 -10 -55 -3 -118
-7 -140 -9 -22 -3 -85 -7 -140 -11 -55 -4 -116 -8 -135 -10 -19 -2 -73 -6
-120 -10 -47 -3 -103 -8 -125 -10 -22 -2 -71 -7 -110 -10 -38 -3 -86 -8 -105
-10 -19 -2 -71 -7 -115 -10 -44 -4 -96 -8 -115 -10 -19 -2 -64 -6 -100 -10
-36 -3 -85 -8 -110 -10 -65 -7 -169 -16 -210 -20 -59 -5 -163 -16 -200 -20
-19 -2 -64 -7 -100 -10 -36 -3 -81 -8 -100 -10 -19 -3 -60 -7 -90 -10 -30 -3
-75 -8 -100 -11 -25 -2 -66 -6 -92 -9 -62 -6 -134 -14 -178 -20 -19 -2 -66 -7
-105 -10 -38 -3 -81 -8 -95 -10 -29 -5 -120 -16 -170 -20 -37 -3 -116 -13
-165 -20 -16 -2 -61 -7 -100 -11 -38 -3 -77 -8 -85 -9 -8 -2 -18 -4 -21 -4 -4
-1 -6 -2376 -5 -5278 l1 -5278 1155 -1 c635 0 1176 -4 1203 -8 43 -8 59 -19
40 -28 -9 -3 -20 -18 -183 -233 -63 -82 -117 -152 -120 -155 -3 -3 -17 -21
-30 -40 -13 -19 -27 -37 -30 -40 -3 -3 -104 -133 -224 -290 -119 -157 -223
-292 -229 -300 -7 -8 -62 -79 -122 -158 -420 -548 -537 -699 -550 -717 -9 -11
-26 -33 -38 -49 -138 -180 -790 -1029 -815 -1061 -4 -5 -19 -26 -34 -45 l-26
-35 0 -3911 0 -3911 1264 0 1264 -1 0 4359 0 4359 23 -4 c12 -2 63 -11 112
-21 50 -9 101 -18 115 -20 29 -4 65 -10 175 -30 44 -8 103 -17 130 -20 28 -3
75 -10 105 -15 30 -5 73 -12 95 -15 22 -3 54 -7 70 -9 17 -2 59 -7 95 -11 36
-4 72 -8 80 -10 8 -2 53 -6 100 -10 47 -4 93 -9 103 -11 10 -2 53 -6 95 -9 42
-3 113 -8 157 -11 192 -14 642 -19 830 -10 131 7 320 18 355 21 19 2 73 7 119
10 47 4 92 8 100 10 21 4 126 15 176 20 49 4 176 21 228 31 10 2 51 8 90 13
40 6 84 13 100 16 82 15 155 28 182 32 17 3 82 16 145 30 63 13 129 27 145 30
49 8 413 102 505 129 46 14 91 28 100 29 30 7 287 93 410 138 969 354 1780
878 2420 1563 71 75 197 219 232 264 14 19 36 46 47 60 33 40 35 42 81 105 25
33 47 62 50 65 10 10 85 119 165 240 216 327 423 734 570 1120 26 69 51 134
55 145 10 23 45 130 89 265 36 113 91 310 106 380 2 8 10 42 19 75 16 63 62
274 71 328 4 18 17 91 30 162 13 72 26 153 30 180 3 28 10 77 15 110 10 71 21
150 25 185 18 170 23 222 30 310 3 41 8 95 10 120 26 279 27 1206 0 1480 -2
19 -6 73 -9 120 -4 47 -9 96 -11 110 -2 14 -7 52 -10 85 -9 103 -43 349 -61
450 -3 17 -7 39 -9 50 -5 39 -26 146 -50 260 -9 44 -19 91 -21 105 -28 145
-185 683 -231 790 -3 8 -7 17 -7 20 -1 6 -64 166 -76 195 -123 289 -241 524
-361 723 -125 208 -131 217 -140 220 -5 2 -9 8 -9 13 0 17 -201 290 -311 422
-638 762 -1509 1335 -2573 1692 -136 45 -409 128 -465 140 -9 2 -72 18 -141
35 -107 27 -266 63 -375 85 -81 17 -482 85 -528 90 -28 3 -59 8 -67 10 -8 2
-44 7 -80 10 -36 4 -78 9 -95 11 -16 2 -55 6 -85 9 -30 3 -71 8 -90 10 -19 2
-66 7 -105 10 -38 3 -90 7 -115 9 -45 4 -184 14 -310 21 -181 11 -1085 26
-1093 18z m1038 -2187 c105 -3 208 -8 230 -10 22 -2 76 -7 120 -11 44 -3 94
-7 110 -9 17 -2 57 -7 90 -10 33 -4 85 -11 115 -16 30 -5 73 -12 95 -15 23 -3
52 -8 65 -10 14 -3 61 -12 105 -20 124 -22 131 -24 280 -61 77 -19 147 -37
155 -39 24 -5 229 -72 290 -93 333 -117 747 -334 971 -507 15 -11 41 -31 59
-45 312 -239 599 -559 801 -890 123 -203 239 -440 312 -640 33 -92 58 -164 62
-180 3 -8 14 -46 26 -85 23 -76 59 -209 65 -238 2 -10 6 -27 9 -37 3 -10 8
-29 10 -42 3 -13 7 -34 10 -48 3 -14 7 -36 10 -50 3 -14 9 -47 15 -75 12 -62
17 -93 29 -170 16 -98 20 -127 26 -190 3 -33 8 -71 10 -85 2 -14 7 -63 10
-110 4 -47 9 -98 11 -115 5 -42 17 -392 16 -495 0 -104 -12 -462 -17 -510 -2
-19 -7 -75 -10 -125 -13 -154 -18 -201 -45 -380 -5 -33 -12 -78 -15 -100 -3
-23 -8 -52 -11 -65 -2 -14 -11 -59 -19 -100 -41 -228 -126 -535 -210 -760
-266 -714 -662 -1260 -1245 -1713 -229 -179 -619 -399 -905 -511 -38 -16 -85
-35 -104 -43 -33 -14 -270 -93 -376 -126 -47 -14 -105 -28 -122 -29 -5 0 -19
-5 -33 -10 -13 -5 -56 -16 -95 -24 -38 -9 -79 -17 -90 -20 -11 -2 -33 -7 -50
-10 -16 -2 -46 -9 -65 -14 -19 -4 -57 -12 -85 -16 -27 -4 -52 -8 -55 -9 -4 -1
-92 -13 -145 -20 -11 -2 -38 -6 -60 -9 -22 -3 -69 -8 -105 -11 -36 -3 -76 -8
-90 -10 -151 -24 -999 -24 -1280 0 -25 2 -99 7 -165 10 -66 4 -136 8 -155 10
-19 2 -73 6 -120 10 -47 3 -102 8 -124 11 -21 2 -66 6 -100 9 -33 3 -79 7
-101 10 -22 2 -67 7 -100 10 -33 3 -71 8 -85 10 -14 2 -50 7 -80 10 -30 4 -66
8 -80 10 -14 2 -45 7 -70 10 -73 10 -244 36 -260 40 -8 2 -18 4 -22 4 -5 1 -8
1934 -8 4296 0 4084 1 4295 18 4296 9 0 26 2 37 4 11 3 47 7 80 10 33 3 76 7
95 9 55 7 130 15 190 21 30 3 71 7 90 10 19 2 60 7 90 10 30 3 75 7 100 10 76
8 171 17 209 20 63 5 175 16 216 20 22 2 74 7 115 10 41 3 93 8 115 10 22 2
83 7 135 10 52 3 122 8 155 10 33 3 132 7 220 11 88 3 161 7 162 8 3 3 389 -3
568 -8z"/>
<path d="M9 24113 c0 -30 0 -10649 0 -10666 1 -9 248 -12 1207 -12 663 0 1207
-2 1209 -5 1 -3 -36 -55 -84 -116 -47 -61 -97 -126 -111 -144 -86 -113 -343
-448 -354 -461 -7 -8 -31 -40 -54 -70 -22 -30 -89 -117 -149 -194 -59 -78
-121 -159 -138 -180 -16 -22 -32 -42 -35 -45 -3 -3 -32 -41 -65 -85 -33 -44
-62 -82 -65 -85 -3 -3 -48 -61 -100 -130 -52 -69 -165 -216 -250 -326 -85
-111 -231 -302 -325 -424 -93 -122 -178 -231 -187 -243 -9 -12 -96 -125 -193
-252 -97 -126 -188 -245 -203 -264 -62 -78 -102 -135 -103 -145 0 -14 0 -7787
0 -7802 1 -9 332 -11 1264 -10 l1262 1 0 4773 0 4774 60 35 c33 20 76 45 96
57 36 21 187 111 619 369 129 77 249 148 265 157 17 10 110 66 209 124 98 59
180 105 181 104 1 -2 119 -192 166 -268 5 -8 31 -51 58 -95 27 -44 76 -123
108 -175 31 -52 60 -97 64 -100 3 -3 8 -10 10 -15 2 -6 35 -60 72 -120 37 -61
73 -119 80 -129 7 -11 42 -67 78 -125 36 -58 90 -146 120 -194 30 -48 61 -99
69 -112 8 -13 34 -54 57 -92 82 -136 543 -878 550 -888 4 -5 26 -39 47 -75 22
-36 98 -159 170 -275 72 -115 136 -218 141 -227 6 -10 61 -100 123 -200 62
-101 158 -255 212 -343 54 -88 108 -173 118 -190 11 -16 71 -113 134 -215 63
-102 337 -544 609 -982 272 -439 508 -821 526 -850 17 -29 37 -58 42 -65 6 -7
11 -15 11 -18 0 -3 50 -85 110 -183 61 -97 115 -184 120 -192 4 -8 66 -107
137 -220 70 -113 131 -212 135 -220 7 -13 100 -163 221 -355 24 -38 102 -164
174 -280 71 -115 168 -271 214 -345 46 -74 88 -143 94 -152 37 -62 72 -120
100 -163 47 -74 395 -635 415 -670 9 -16 44 -73 77 -125 33 -52 96 -153 141
-225 148 -241 337 -546 397 -642 11 -18 44 -72 74 -120 97 -157 363 -586 415
-669 l50 -81 1488 0 1488 0 -17 26 c-32 51 -63 99 -258 416 -109 176 -208 336
-220 355 -12 19 -141 226 -285 460 -144 234 -272 441 -285 460 -12 19 -59 94
-103 165 -44 72 -165 267 -269 435 -104 168 -198 320 -208 337 -35 59 -127
207 -160 258 -36 57 -251 403 -375 605 -123 200 -259 420 -285 460 -13 19 -64
103 -115 185 -150 244 -298 482 -376 606 -40 64 -81 130 -91 148 -10 17 -46
75 -79 128 -34 54 -209 337 -389 628 -180 292 -337 546 -350 565 -13 19 -81
130 -152 245 -161 262 -308 499 -337 545 -13 19 -41 64 -63 100 -22 36 -119
191 -214 345 -96 154 -178 288 -184 297 -23 41 -150 247 -180 293 -78 118
-495 797 -495 805 0 5 -3 10 -8 12 -4 2 -34 47 -67 101 -33 54 -72 117 -87
140 -15 23 -33 53 -41 67 -14 26 -641 1036 -681 1100 -13 19 -41 64 -63 100
-106 172 -129 210 -170 272 -23 37 -43 70 -43 73 0 3 -9 18 -19 33 -11 15 -71
110 -133 212 -63 102 -185 299 -272 438 -87 140 -160 260 -163 268 -3 7 45 77
109 161 63 81 150 195 194 253 96 125 400 522 829 1080 171 223 333 434 360
470 27 36 52 67 55 70 3 3 25 32 50 65 45 59 562 733 713 930 92 119 207 269
351 457 57 75 127 165 153 200 224 290 381 494 398 518 11 15 54 72 96 126 42
55 133 173 203 264 69 91 142 185 161 210 19 25 71 92 115 150 45 58 89 115
98 127 55 71 676 880 735 957 12 16 195 254 406 530 212 276 428 557 480 626
53 69 101 132 108 140 7 8 62 80 123 160 61 80 116 152 123 160 7 9 48 63 92
120 43 58 83 110 87 115 24 29 142 183 208 270 41 55 78 102 81 105 3 3 32 41
65 85 32 44 61 82 64 85 3 3 76 97 163 210 86 113 326 426 533 695 432 563
488 636 496 650 4 7 -525 10 -1589 10 -1405 0 -1595 -2 -1603 -15 -7 -12 -460
-607 -503 -660 -14 -16 -360 -467 -392 -509 -57 -76 -799 -1043 -822 -1071 -7
-8 -43 -55 -80 -105 -38 -49 -107 -139 -153 -200 -47 -60 -309 -402 -583 -760
-274 -357 -506 -659 -515 -670 -10 -11 -35 -45 -57 -75 -21 -30 -42 -57 -45
-60 -7 -5 -73 -92 -338 -440 -94 -124 -177 -232 -184 -240 -7 -8 -33 -41 -59
-75 -25 -33 -157 -206 -295 -385 -137 -179 -294 -383 -349 -455 -55 -71 -151
-198 -215 -280 -63 -83 -128 -168 -144 -190 -17 -22 -33 -42 -36 -45 -3 -3
-56 -70 -116 -150 -127 -167 -171 -225 -283 -370 -45 -58 -120 -157 -168 -220
-48 -63 -90 -117 -93 -120 -3 -3 -84 -108 -180 -233 -96 -126 -307 -401 -468
-610 -161 -210 -361 -472 -446 -582 -152 -198 -587 -764 -676 -880 -25 -33
-91 -118 -145 -190 -55 -71 -105 -137 -112 -145 -6 -8 -31 -41 -55 -72 -42
-55 -108 -142 -328 -428 -57 -74 -129 -168 -159 -207 -30 -40 -58 -73 -61 -73
-3 0 -5 2366 -5 5258 l0 5257 -1263 0 -1262 0 -1 -22z"/>
</g>
</svg>
